<?xml version="1.0" standalone="no"?>
<!DOCTYPE svg PUBLIC "-//W3C//DTD SVG 20010904//EN"
 "http://www.w3.org/TR/2001/REC-SVG-20010904/DTD/svg10.dtd">
<svg version="1.0" xmlns="http://www.w3.org/2000/svg"
 width="512.000000pt" height="512.000000pt" viewBox="0 0 512.000000 512.000000"
 preserveAspectRatio="xMidYMid meet">
<metadata>
Created by potrace 1.14, written by Peter Selinger 2001-2017
</metadata>
<g transform="translate(0.000000,512.000000) scale(0.100000,-0.100000)"
fill="#000000" stroke="none">
<path d="M895 5109 c-224 -29 -427 -129 -591 -293 -168 -169 -264 -367 -294
-606 -14 -116 -14 -3184 0 -3300 30 -239 126 -437 294 -606 169 -168 367 -264
606 -294 116 -14 3184 -14 3300 0 239 30 437 126 606 294 168 169 264 367 294
606 14 116 14 3184 0 3300 -30 239 -126 437 -294 606 -169 168 -367 264 -606
294 -105 13 -3213 12 -3315 -1z m1605 -380 c239 -47 436 -154 616 -333 182
-183 295 -397 345 -655 6 -32 13 -247 16 -508 l5 -452 65 64 c136 135 292 210
476 230 l67 7 0 -560 c0 -313 -5 -605 -10 -663 -62 -618 -495 -1143 -1086
-1318 -154 -46 -231 -55 -434 -55 -164 0 -211 3 -297 22 -447 97 -804 353
-1026 737 -329 569 -254 1325 189 1887 36 46 129 153 207 238 79 85 170 189
204 231 247 304 393 667 409 1018 3 64 7 121 9 127 4 15 121 7 245 -17z m-702
-466 c-4 -167 -7 -194 -27 -239 -40 -92 -138 -167 -235 -180 l-48 -7 4 194 c3
181 5 197 27 243 13 26 40 64 59 83 43 43 145 93 191 93 l33 0 -4 -187z"/>
</g>
</svg>
